<svg width="512" height="512" xmlns="http://www.w3.org/2000/svg">

 <g>
  <title>Layer 1</title>
  <path id="svg_12" d="m258.216,493.527a8,8 0 0 0 5.784,2.473l192,0a8,8 0 0 0 7.992,-8.363l-15.992,-351.828l0,-31.809a8,8 0 0 0 -8,-8l-29.578,0l-32.381,-21.588a31.994,31.994 0 1 0 -50.041,-26.412a8,8 0 0 0 16,0a16,16 0 1 1 16,16a7.992,7.992 0 0 0 -4.438,1.344l-45.984,30.656l-29.578,0c-0.1,0 -0.193,0.011 -0.29,0.015c-0.232,0 -0.462,-0.015 -0.694,-0.015l-36.594,0l-32.382,-21.588a31.994,31.994 0 1 0 -50.04,-26.412a8,8 0 0 0 16,0a16,16 0 1 1 16,16a7.992,7.992 0 0 0 -4.438,1.344l-45.984,30.656l-36.594,0a39.941,39.941 0 0 0 -38.8,30.3q-0.095,0.373 -0.152,0.755l-17.94,119.76a7.994,7.994 0 0 0 -0.092,1.185l0,160a8,8 0 0 0 8,8l48,0a8,8 0 0 0 8,-8l0,-8l48,0a8,8 0 0 0 8,-8l0,-8l48,0l0,8a8,8 0 0 0 8,8l35.991,0l-3.983,87.637a8,8 0 0 0 2.208,5.89zm93.784,-13.527l-79.628,0l2.977,-65.5a7.949,7.949 0 0 0 4.651,1.5l48,0a8,8 0 0 0 8,-8l0,-160a7.994,7.994 0 0 0 -0.088,-1.186l-15.402,-102.814l31.49,0l0,336zm95.628,0l-79.628,0l0,-336l32.672,0a66.078,66.078 0 0 0 3.9,14.971c5.666,14.163 16.05,22.739 29.583,24.628l13.473,296.401zm-14.222,-312.871c-6.223,-1.783 -10.783,-6.326 -13.838,-13.755a47.5,47.5 0 0 1 -2.688,-9.374l15.475,0l1.051,23.129zm-73.406,-85.514l21.578,14.385l-43.156,0l21.578,-14.385zm72,30.385l0,16l-113.886,0l-0.142,-0.946q-0.057,-0.381 -0.152,-0.755a39.964,39.964 0 0 0 -6.8,-14.3l120.98,0.001zm-184.569,0l15.244,0l-3.7,24.062a14.792,14.792 0 0 1 -26.479,6.576a55.875,55.875 0 0 0 14.935,-30.638zm-55.431,-30.385l21.578,14.385l-43.156,0l21.578,-14.385zm-55.431,30.385a55.875,55.875 0 0 0 14.937,30.638a14.792,14.792 0 0 1 -26.479,-6.576l-3.702,-24.062l15.244,0zm15.431,272l-40,0l0,-152a8,8 0 0 0 -16,0l0,168l-32,0l0,-151.4l17.791,-118.767a23.964,23.964 0 0 1 23.193,-17.833l0.152,0l4.077,26.5a30.289,30.289 0 0 0 25.651,25.724a30.834,30.834 0 0 0 17.136,-2.1l0,221.876zm64,-16l-48,0l0,-213.419a55.856,55.856 0 0 0 48,0l0,213.419zm-24,-224a40.069,40.069 0 0 1 -39.195,-32l78.395,0a40.069,40.069 0 0 1 -39.2,32zm40,240l0,-221.879a30.844,30.844 0 0 0 17.136,2.1a30.289,30.289 0 0 0 25.651,-25.721l4.077,-26.5l0.152,0a23.964,23.964 0 0 1 23.193,17.833l17.791,118.767l0,151.4l-32,0l0,-168a8,8 0 0 0 -16,0l0,152l-40,0z"/>
 </g>
</svg>