<svg width="210" height="210" viewBox="0 0 210 210" fill="none" xmlns="http://www.w3.org/2000/svg">
<path fill-rule="evenodd" clip-rule="evenodd" d="M68.1769 36.7107L36.7106 68.1769L65.5547 97.021H97.0209V65.5548L68.1769 36.7107ZM82.1794 71.6907L68.1769 57.6882L57.6881 68.1769L71.6906 82.1794L82.1794 82.1794L82.1794 71.6907ZM138.084 82.1794L152.087 68.177L141.598 57.6882L127.596 71.6907L127.596 82.1794H138.084ZM71.6906 127.596L82.1794 127.596L82.1794 138.084L68.1769 152.087L57.6881 141.598L71.6906 127.596ZM138.084 127.596H127.596L127.596 138.084L141.598 152.087L152.087 141.598L138.084 127.596ZM112.754 65.5548L141.598 36.7107L173.064 68.1769L144.22 97.021H112.754V65.5548ZM65.5547 112.754L36.7106 141.598L68.1769 173.064L97.0209 144.22V112.754H65.5547ZM112.754 144.22V112.754H144.22L173.064 141.598L141.598 173.064L112.754 144.22Z" fill="#3268D0"/>
</svg>
